<svg width="100" height="100" viewBox="0 0 100 100" fill="none" xmlns="http://www.w3.org/2000/svg">
  <path d="M30 60 L30 85 Q30 90 35 90 L40 90 Q45 90 45 85 L45 60" fill="none" stroke="#90EE90" stroke-width="2"/>
  <polygon points="25,60 50,60 47,40 28,40" fill="#F0E68C" stroke="#DAA520" stroke-width="2"/>
  <rect x="28" y="35" width="19" height="5" fill="#C0C0C0"/>
  <circle cx="43" cy="30" r="3" fill="#FFD700"/>
  <path d="M55 60 L55 85 Q55 90 60 90 L65 90 Q70 90 70 85 L70 60" fill="none" stroke="#90EE90" stroke-width="2"/>
  <polygon points="50,60 75,60 72,40 53,40" fill="#F0E68C" stroke="#DAA520" stroke-width="2"/>
  <rect x="53" y="35" width="19" height="5" fill="#C0C0C0"/>
  <circle cx="68" cy="30" r="3" fill="#FFD700"/>
  <circle cx="35" cy="20" r="2" fill="#87CEEB"/>
  <circle cx="45" cy="15" r="2" fill="#87CEEB"/>
  <circle cx="55" cy="18" r="2" fill="#87CEEB"/>
  <circle cx="65" cy="22" r="2" fill="#87CEEB"/>
</svg>

