<svg width="150" height="150" viewBox="0 0 150 150" fill="none" xmlns="http://www.w3.org/2000/svg">
  <circle cx="20" cy="20" r="12" fill="#FFB3BA"/>
  <circle cx="15" cy="15" r="5" fill="#FFDFBA"/>
  <circle cx="45" cy="25" r="10" fill="#FFFFBA"/>
  <circle cx="40" cy="20" r="4" fill="#FFB3BA"/>
  <circle cx="70" cy="35" r="9" fill="#BAE1FF"/>
  <circle cx="30" cy="45" r="11" fill="#FFB3BA"/>
  <circle cx="55" cy="55" r="8" fill="#BAFFC9"/>
  <path d="M10 30 Q15 40 20 35" stroke="#90EE90" stroke-width="3" fill="none"/>
  <path d="M25 45 Q35 50 40 45" stroke="#90EE90" stroke-width="3" fill="none"/>
  <path d="M45 60 Q55 65 60 60" stroke="#90EE90" stroke-width="3" fill="none"/>
  <ellipse cx="12" cy="35" rx="4" ry="6" fill="#90EE90" transform="rotate(-30 12 35)"/>
  <ellipse cx="30" cy="52" rx="4" ry="6" fill="#90EE90" transform="rotate(-20 30 52)"/>
  <ellipse cx="50" cy="67" rx="4" ry="6" fill="#90EE90" transform="rotate(-40 50 67)"/>
</svg>

