<svg width="120" height="120" viewBox="0 0 120 120" fill="none" xmlns="http://www.w3.org/2000/svg">
  <path d="M20 40 L23 48 L32 48 L25 53 L28 62 L20 56 L12 62 L15 53 L8 48 L17 48 Z" fill="#FFD700"/>
  <path d="M60 20 L64 30 L75 30 L66 37 L70 48 L60 41 L50 48 L54 37 L45 30 L56 30 Z" fill="#FF69B4"/>
  <path d="M100 35 L103 43 L112 43 L105 48 L108 57 L100 51 L92 57 L95 48 L88 43 L97 43 Z" fill="#87CEEB"/>
  <path d="M35 80 L38 88 L47 88 L40 93 L43 102 L35 96 L27 102 L30 93 L23 88 L32 88 Z" fill="#98FB98"/>
  <path d="M80 85 L83 93 L92 93 L85 98 L88 107 L80 101 L72 107 L75 98 L68 93 L77 93 Z" fill="#FFB6C1"/>
  <path d="M50 100 L52 106 L59 106 L54 110 L56 116 L50 112 L44 116 L46 110 L41 106 L48 106 Z" fill="#DDA0DD"/>
</svg>

